<svg width="266" height="138" viewBox="0 0 266 138" fill="none" xmlns="http://www.w3.org/2000/svg">
<mask id="path-1-inside-1_268_945" fill="white">
<path fill-rule="evenodd" clip-rule="evenodd" d="M110.163 0C88.0718 0 70.1631 17.9086 70.1631 40V50.0205C70.1631 59.8175 49.7132 69 39.9163 69H34.5C15.4462 69 0 84.4462 0 103.5C0 122.554 15.4462 138 34.5 138H39.9163C54.5276 138 92.7017 136.858 107.276 137.897C108.23 137.965 109.192 138 110.163 138H225.346C247.438 138 265.346 120.091 265.346 98V40C265.346 17.9086 247.438 0 225.346 0H110.163Z"/>
</mask>
<path d="M72.1631 40C72.1631 19.0132 89.1763 2 110.163 2V-2C86.9672 -2 68.1631 16.804 68.1631 40H72.1631ZM72.1631 50.0205V40H68.1631V50.0205H72.1631ZM34.5 71H39.9163V67H34.5V71ZM2 103.5C2 85.5507 16.5507 71 34.5 71V67C14.3416 67 -2 83.3416 -2 103.5H2ZM34.5 136C16.5508 136 2 121.449 2 103.5H-2C-2 123.658 14.3416 140 34.5 140V136ZM39.9163 136H34.5V140H39.9163V136ZM110.163 136C109.24 136 108.325 135.967 107.418 135.902L107.134 139.892C108.135 139.964 109.145 140 110.163 140V136ZM225.346 136H110.163V140H225.346V136ZM263.346 98C263.346 118.987 246.333 136 225.346 136V140C248.542 140 267.346 121.196 267.346 98H263.346ZM263.346 40V98H267.346V40H263.346ZM225.346 2C246.333 2 263.346 19.0132 263.346 40H267.346C267.346 16.804 248.542 -2 225.346 -2V2ZM110.163 2H225.346V-2H110.163V2ZM39.9163 140C54.6907 140 92.649 138.859 107.134 139.892L107.418 135.902C92.7545 134.857 54.3645 136 39.9163 136V140ZM68.1631 50.0205C68.1631 51.7617 67.2453 53.708 65.3464 55.7612C63.4664 57.7941 60.7963 59.7393 57.7423 61.4358C51.5846 64.8564 44.3617 67 39.9163 67V71C45.2678 71 53.1683 68.5523 59.6848 64.9325C62.9679 63.1087 66.0226 60.9213 68.2831 58.4771C70.5248 56.0532 72.1631 53.1778 72.1631 50.0205H68.1631Z" fill="#DE5EE6" mask="url(#path-1-inside-1_268_945)"/>
</svg>
