<svg width="660" height="343" viewBox="0 0 660 343" fill="none" xmlns="http://www.w3.org/2000/svg">
<mask id="path-1-inside-1_107_380" fill="white">
<path fill-rule="evenodd" clip-rule="evenodd" d="M214.393 0C192.302 0 174.393 17.9086 174.393 40V151.335C174.393 163.094 156.721 171.5 144.962 171.5H40C17.9086 171.5 0 189.409 0 211.5V303C0 325.091 17.9086 343 40 343H144.962C163.587 343 195.768 343 214.393 343H619.522C641.614 343 659.522 325.091 659.522 303V40C659.522 17.9086 641.614 0 619.522 0H214.393Z"/>
</mask>
<path d="M176.393 40C176.393 19.0132 193.406 2 214.393 2V-2C191.197 -2 172.393 16.804 172.393 40H176.393ZM176.393 151.335V40H172.393V151.335H176.393ZM40 173.5H144.962V169.5H40V173.5ZM2 211.5C2 190.513 19.0132 173.5 40 173.5V169.5C16.804 169.5 -2 188.304 -2 211.5H2ZM2 303V211.5H-2V303H2ZM40 341C19.0131 341 2 323.987 2 303H-2C-2 326.196 16.804 345 40 345V341ZM144.962 341H40V345H144.962V341ZM619.522 341H214.393V345H619.522V341ZM657.522 303C657.522 323.987 640.509 341 619.522 341V345C642.718 345 661.522 326.196 661.522 303H657.522ZM657.522 40V303H661.522V40H657.522ZM619.522 2C640.509 2 657.522 19.0132 657.522 40H661.522C661.522 16.804 642.718 -2 619.522 -2V2ZM214.393 2H619.522V-2H214.393V2ZM144.962 345C144.999 345 145.035 345 145.071 345C145.108 345 145.144 345 145.181 345C145.218 345 145.254 345 145.291 345C145.328 345 145.364 345 145.401 345C145.438 345 145.475 345 145.512 345C145.549 345 145.586 345 145.623 345C145.66 345 145.697 345 145.734 345C145.771 345 145.808 345 145.845 345C145.882 345 145.92 345 145.957 345C145.994 345 146.031 345 146.069 345C146.106 345 146.144 345 146.181 345C146.219 345 146.256 345 146.294 345C146.331 345 146.369 345 146.407 345C146.444 345 146.482 345 146.52 345C146.558 345 146.596 345 146.633 345C146.671 345 146.709 345 146.747 345C146.785 345 146.823 345 146.861 345C146.899 345 146.937 345 146.976 345C147.014 345 147.052 345 147.09 345C147.129 345 147.167 345 147.205 345C147.244 345 147.282 345 147.32 345C147.359 345 147.397 345 147.436 345C147.475 345 147.513 345 147.552 345C147.59 345 147.629 345 147.668 345C147.707 345 147.745 345 147.784 345C147.823 345 147.862 345 147.901 345C147.94 345 147.979 345 148.018 345C148.057 345 148.096 345 148.135 345C148.174 345 148.213 345 148.253 345C148.292 345 148.331 345 148.37 345C148.41 345 148.449 345 148.488 345C148.528 345 148.567 345 148.607 345C148.646 345 148.686 345 148.725 345C148.765 345 148.804 345 148.844 345C148.884 345 148.923 345 148.963 345C149.003 345 149.043 345 149.083 345C149.122 345 149.162 345 149.202 345C149.242 345 149.282 345 149.322 345C149.362 345 149.402 345 149.442 345C149.482 345 149.523 345 149.563 345C149.603 345 149.643 345 149.683 345C149.724 345 149.764 345 149.804 345C149.845 345 149.885 345 149.926 345C149.966 345 150.007 345 150.047 345C150.088 345 150.128 345 150.169 345C150.209 345 150.25 345 150.291 345C150.332 345 150.372 345 150.413 345C150.454 345 150.495 345 150.536 345C150.576 345 150.617 345 150.658 345C150.699 345 150.74 345 150.781 345C150.822 345 150.863 345 150.905 345C150.946 345 150.987 345 151.028 345C151.069 345 151.111 345 151.152 345C151.193 345 151.234 345 151.276 345C151.317 345 151.359 345 151.4 345C151.442 345 151.483 345 151.525 345C151.566 345 151.608 345 151.649 345C151.691 345 151.733 345 151.774 345C151.816 345 151.858 345 151.899 345C151.941 345 151.983 345 152.025 345C152.067 345 152.109 345 152.151 345C152.193 345 152.235 345 152.277 345C152.319 345 152.361 345 152.403 345C152.445 345 152.487 345 152.529 345C152.571 345 152.613 345 152.656 345C152.698 345 152.74 345 152.783 345C152.825 345 152.867 345 152.91 345C152.952 345 152.994 345 153.037 345C153.079 345 153.122 345 153.165 345C153.207 345 153.25 345 153.292 345C153.335 345 153.378 345 153.42 345C153.463 345 153.506 345 153.548 345C153.591 345 153.634 345 153.677 345C153.72 345 153.763 345 153.806 345C153.849 345 153.891 345 153.934 345C153.977 345 154.02 345 154.064 345C154.107 345 154.15 345 154.193 345C154.236 345 154.279 345 154.322 345C154.366 345 154.409 345 154.452 345C154.495 345 154.539 345 154.582 345C154.626 345 154.669 345 154.712 345C154.756 345 154.799 345 154.843 345C154.886 345 154.93 345 154.973 345C155.017 345 155.061 345 155.104 345C155.148 345 155.191 345 155.235 345C155.279 345 155.323 345 155.366 345C155.41 345 155.454 345 155.498 345C155.542 345 155.586 345 155.629 345C155.673 345 155.717 345 155.761 345C155.805 345 155.849 345 155.893 345C155.937 345 155.981 345 156.026 345C156.07 345 156.114 345 156.158 345C156.202 345 156.246 345 156.291 345C156.335 345 156.379 345 156.424 345C156.468 345 156.512 345 156.557 345C156.601 345 156.645 345 156.69 345C156.734 345 156.779 345 156.823 345C156.868 345 156.912 345 156.957 345C157.001 345 157.046 345 157.091 345C157.135 345 157.18 345 157.225 345C157.269 345 157.314 345 157.359 345C157.404 345 157.448 345 157.493 345C157.538 345 157.583 345 157.628 345C157.673 345 157.718 345 157.763 345C157.808 345 157.852 345 157.897 345C157.943 345 157.988 345 158.033 345C158.078 345 158.123 345 158.168 345C158.213 345 158.258 345 158.303 345C158.349 345 158.394 345 158.439 345C158.484 345 158.53 345 158.575 345C158.62 345 158.666 345 158.711 345C158.756 345 158.802 345 158.847 345C158.893 345 158.938 345 158.983 345C159.029 345 159.074 345 159.12 345C159.166 345 159.211 345 159.257 345C159.302 345 159.348 345 159.394 345C159.439 345 159.485 345 159.531 345C159.576 345 159.622 345 159.668 345C159.714 345 159.759 345 159.805 345C159.851 345 159.897 345 159.943 345C159.989 345 160.035 345 160.081 345C160.126 345 160.172 345 160.218 345C160.264 345 160.31 345 160.356 345C160.403 345 160.449 345 160.495 345C160.541 345 160.587 345 160.633 345C160.679 345 160.725 345 160.772 345C160.818 345 160.864 345 160.91 345C160.956 345 161.003 345 161.049 345C161.095 345 161.142 345 161.188 345C161.234 345 161.281 345 161.327 345C161.374 345 161.42 345 161.467 345C161.513 345 161.559 345 161.606 345C161.652 345 161.699 345 161.746 345C161.792 345 161.839 345 161.885 345C161.932 345 161.979 345 162.025 345C162.072 345 162.119 345 162.165 345C162.212 345 162.259 345 162.305 345C162.352 345 162.399 345 162.446 345C162.493 345 162.539 345 162.586 345C162.633 345 162.68 345 162.727 345C162.774 345 162.821 345 162.868 345C162.915 345 162.962 345 163.009 345C163.056 345 163.103 345 163.15 345C163.197 345 163.244 345 163.291 345C163.338 345 163.385 345 163.432 345C163.479 345 163.526 345 163.574 345C163.621 345 163.668 345 163.715 345C163.762 345 163.81 345 163.857 345C163.904 345 163.951 345 163.999 345C164.046 345 164.093 345 164.141 345C164.188 345 164.235 345 164.283 345C164.33 345 164.378 345 164.425 345C164.472 345 164.52 345 164.567 345C164.615 345 164.662 345 164.71 345C164.757 345 164.805 345 164.852 345C164.9 345 164.948 345 164.995 345C165.043 345 165.09 345 165.138 345C165.186 345 165.233 345 165.281 345C165.329 345 165.376 345 165.424 345C165.472 345 165.519 345 165.567 345C165.615 345 165.663 345 165.711 345C165.758 345 165.806 345 165.854 345C165.902 345 165.95 345 165.998 345C166.045 345 166.093 345 166.141 345C166.189 345 166.237 345 166.285 345C166.333 345 166.381 345 166.429 345C166.477 345 166.525 345 166.573 345C166.621 345 166.669 345 166.717 345C166.765 345 166.813 345 166.861 345C166.909 345 166.957 345 167.005 345C167.054 345 167.102 345 167.15 345C167.198 345 167.246 345 167.294 345C167.343 345 167.391 345 167.439 345C167.487 345 167.535 345 167.584 345C167.632 345 167.68 345 167.729 345C167.777 345 167.825 345 167.873 345C167.922 345 167.97 345 168.018 345C168.067 345 168.115 345 168.164 345C168.212 345 168.26 345 168.309 345C168.357 345 168.406 345 168.454 345C168.503 345 168.551 345 168.599 345C168.648 345 168.696 345 168.745 345C168.793 345 168.842 345 168.891 345C168.939 345 168.988 345 169.036 345C169.085 345 169.133 345 169.182 345C169.231 345 169.279 345 169.328 345C169.376 345 169.425 345 169.474 345C169.522 345 169.571 345 169.62 345C169.668 345 169.717 345 169.766 345C169.814 345 169.863 345 169.912 345C169.961 345 170.009 345 170.058 345C170.107 345 170.156 345 170.204 345C170.253 345 170.302 345 170.351 345C170.4 345 170.449 345 170.497 345C170.546 345 170.595 345 170.644 345C170.693 345 170.742 345 170.791 345C170.839 345 170.888 345 170.937 345C170.986 345 171.035 345 171.084 345C171.133 345 171.182 345 171.231 345C171.28 345 171.329 345 171.378 345C171.427 345 171.476 345 171.525 345C171.574 345 171.623 345 171.672 345C171.721 345 171.77 345 171.819 345C171.868 345 171.917 345 171.966 345C172.015 345 172.064 345 172.113 345C172.162 345 172.212 345 172.261 345C172.31 345 172.359 345 172.408 345C172.457 345 172.506 345 172.555 345C172.605 345 172.654 345 172.703 345C172.752 345 172.801 345 172.85 345C172.9 345 172.949 345 172.998 345C173.047 345 173.096 345 173.146 345C173.195 345 173.244 345 173.293 345C173.343 345 173.392 345 173.441 345C173.49 345 173.54 345 173.589 345C173.638 345 173.687 345 173.737 345C173.786 345 173.835 345 173.885 345C173.934 345 173.983 345 174.033 345C174.082 345 174.131 345 174.181 345C174.23 345 174.279 345 174.329 345C174.378 345 174.427 345 174.477 345C174.526 345 174.575 345 174.625 345C174.674 345 174.724 345 174.773 345C174.822 345 174.872 345 174.921 345C174.971 345 175.02 345 175.069 345C175.119 345 175.168 345 175.218 345C175.267 345 175.317 345 175.366 345C175.415 345 175.465 345 175.514 345C175.564 345 175.613 345 175.663 345C175.712 345 175.762 345 175.811 345C175.861 345 175.91 345 175.96 345C176.009 345 176.059 345 176.108 345C176.158 345 176.207 345 176.257 345C176.306 345 176.356 345 176.405 345C176.455 345 176.504 345 176.554 345C176.603 345 176.653 345 176.702 345C176.752 345 176.801 345 176.851 345C176.9 345 176.95 345 177 345C177.049 345 177.099 345 177.148 345C177.198 345 177.247 345 177.297 345C177.346 345 177.396 345 177.446 345C177.495 345 177.545 345 177.594 345C177.644 345 177.693 345 177.743 345C177.793 345 177.842 345 177.892 345C177.941 345 177.991 345 178.041 345C178.09 345 178.14 345 178.189 345C178.239 345 178.289 345 178.338 345C178.388 345 178.437 345 178.487 345C178.537 345 178.586 345 178.636 345C178.685 345 178.735 345 178.785 345C178.834 345 178.884 345 178.933 345C178.983 345 179.033 345 179.082 345C179.132 345 179.181 345 179.231 345C179.281 345 179.33 345 179.38 345C179.43 345 179.479 345 179.529 345C179.578 345 179.628 345 179.678 345C179.727 345 179.777 345 179.826 345C179.876 345 179.926 345 179.975 345C180.025 345 180.074 345 180.124 345C180.174 345 180.223 345 180.273 345C180.323 345 180.372 345 180.422 345C180.471 345 180.521 345 180.571 345C180.62 345 180.67 345 180.719 345C180.769 345 180.819 345 180.868 345C180.918 345 180.967 345 181.017 345C181.067 345 181.116 345 181.166 345C181.215 345 181.265 345 181.315 345C181.364 345 181.414 345 181.463 345C181.513 345 181.563 345 181.612 345C181.662 345 181.711 345 181.761 345C181.81 345 181.86 345 181.91 345C181.959 345 182.009 345 182.058 345C182.108 345 182.157 345 182.207 345C182.257 345 182.306 345 182.356 345C182.405 345 182.455 345 182.504 345C182.554 345 182.603 345 182.653 345C182.702 345 182.752 345 182.801 345C182.851 345 182.9 345 182.95 345C183 345 183.049 345 183.099 345C183.148 345 183.198 345 183.247 345C183.297 345 183.346 345 183.396 345C183.445 345 183.495 345 183.544 345C183.593 345 183.643 345 183.692 345C183.742 345 183.791 345 183.841 345C183.89 345 183.94 345 183.989 345C184.039 345 184.088 345 184.137 345C184.187 345 184.236 345 184.286 345C184.335 345 184.385 345 184.434 345C184.483 345 184.533 345 184.582 345C184.632 345 184.681 345 184.73 345C184.78 345 184.829 345 184.878 345C184.928 345 184.977 345 185.027 345C185.076 345 185.125 345 185.175 345C185.224 345 185.273 345 185.323 345C185.372 345 185.421 345 185.471 345C185.52 345 185.569 345 185.618 345C185.668 345 185.717 345 185.766 345C185.816 345 185.865 345 185.914 345C185.963 345 186.013 345 186.062 345C186.111 345 186.16 345 186.21 345C186.259 345 186.308 345 186.357 345C186.406 345 186.456 345 186.505 345C186.554 345 186.603 345 186.652 345C186.701 345 186.751 345 186.8 345C186.849 345 186.898 345 186.947 345C186.996 345 187.045 345 187.095 345C187.144 345 187.193 345 187.242 345C187.291 345 187.34 345 187.389 345C187.438 345 187.487 345 187.536 345C187.585 345 187.634 345 187.683 345C187.732 345 187.781 345 187.83 345C187.879 345 187.928 345 187.977 345C188.026 345 188.075 345 188.124 345C188.173 345 188.222 345 188.271 345C188.32 345 188.369 345 188.418 345C188.467 345 188.516 345 188.565 345C188.614 345 188.662 345 188.711 345C188.76 345 188.809 345 188.858 345C188.907 345 188.955 345 189.004 345C189.053 345 189.102 345 189.151 345C189.199 345 189.248 345 189.297 345C189.346 345 189.395 345 189.443 345C189.492 345 189.541 345 189.589 345C189.638 345 189.687 345 189.735 345C189.784 345 189.833 345 189.882 345C189.93 345 189.979 345 190.027 345C190.076 345 190.125 345 190.173 345C190.222 345 190.27 345 190.319 345C190.368 345 190.416 345 190.465 345C190.513 345 190.562 345 190.61 345C190.659 345 190.707 345 190.756 345C190.804 345 190.853 345 190.901 345C190.95 345 190.998 345 191.046 345C191.095 345 191.143 345 191.192 345C191.24 345 191.288 345 191.337 345C191.385 345 191.433 345 191.482 345C191.53 345 191.578 345 191.627 345C191.675 345 191.723 345 191.771 345C191.82 345 191.868 345 191.916 345C191.964 345 192.013 345 192.061 345C192.109 345 192.157 345 192.205 345C192.253 345 192.302 345 192.35 345C192.398 345 192.446 345 192.494 345C192.542 345 192.59 345 192.638 345C192.686 345 192.734 345 192.782 345C192.83 345 192.878 345 192.926 345C192.974 345 193.022 345 193.07 345C193.118 345 193.166 345 193.214 345C193.262 345 193.31 345 193.358 345C193.406 345 193.453 345 193.501 345C193.549 345 193.597 345 193.645 345C193.692 345 193.74 345 193.788 345C193.836 345 193.883 345 193.931 345C193.979 345 194.027 345 194.074 345C194.122 345 194.17 345 194.217 345C194.265 345 194.312 345 194.36 345C194.408 345 194.455 345 194.503 345C194.55 345 194.598 345 194.645 345C194.693 345 194.74 345 194.788 345C194.835 345 194.883 345 194.93 345C194.978 345 195.025 345 195.072 345C195.12 345 195.167 345 195.215 345C195.262 345 195.309 345 195.357 345C195.404 345 195.451 345 195.498 345C195.546 345 195.593 345 195.64 345C195.687 345 195.734 345 195.782 345C195.829 345 195.876 345 195.923 345C195.97 345 196.017 345 196.064 345C196.111 345 196.159 345 196.206 345C196.253 345 196.3 345 196.347 345C196.394 345 196.441 345 196.488 345C196.534 345 196.581 345 196.628 345C196.675 345 196.722 345 196.769 345C196.816 345 196.863 345 196.909 345C196.956 345 197.003 345 197.05 345C197.096 345 197.143 345 197.19 345C197.237 345 197.283 345 197.33 345C197.377 345 197.423 345 197.47 345C197.516 345 197.563 345 197.61 345C197.656 345 197.703 345 197.749 345C197.796 345 197.842 345 197.889 345C197.935 345 197.982 345 198.028 345C198.074 345 198.121 345 198.167 345C198.213 345 198.26 345 198.306 345C198.352 345 198.399 345 198.445 345C198.491 345 198.537 345 198.584 345C198.63 345 198.676 345 198.722 345C198.768 345 198.814 345 198.86 345C198.907 345 198.953 345 198.999 345C199.045 345 199.091 345 199.137 345C199.183 345 199.229 345 199.275 345C199.321 345 199.366 345 199.412 345C199.458 345 199.504 345 199.55 345C199.596 345 199.642 345 199.687 345C199.733 345 199.779 345 199.825 345C199.87 345 199.916 345 199.962 345C200.007 345 200.053 345 200.098 345C200.144 345 200.19 345 200.235 345C200.281 345 200.326 345 200.372 345C200.417 345 200.463 345 200.508 345C200.553 345 200.599 345 200.644 345C200.69 345 200.735 345 200.78 345C200.826 345 200.871 345 200.916 345C200.961 345 201.007 345 201.052 345C201.097 345 201.142 345 201.187 345C201.232 345 201.277 345 201.323 345C201.368 345 201.413 345 201.458 345C201.503 345 201.548 345 201.593 345C201.638 345 201.682 345 201.727 345C201.772 345 201.817 345 201.862 345C201.907 345 201.952 345 201.996 345C202.041 345 202.086 345 202.13 345C202.175 345 202.22 345 202.264 345C202.309 345 202.354 345 202.398 345C202.443 345 202.487 345 202.532 345C202.576 345 202.621 345 202.665 345C202.71 345 202.754 345 202.799 345C202.843 345 202.887 345 202.932 345C202.976 345 203.02 345 203.064 345C203.109 345 203.153 345 203.197 345C203.241 345 203.285 345 203.33 345C203.374 345 203.418 345 203.462 345C203.506 345 203.55 345 203.594 345C203.638 345 203.682 345 203.726 345C203.77 345 203.813 345 203.857 345C203.901 345 203.945 345 203.989 345C204.033 345 204.076 345 204.12 345C204.164 345 204.207 345 204.251 345C204.295 345 204.338 345 204.382 345C204.425 345 204.469 345 204.512 345C204.556 345 204.599 345 204.643 345C204.686 345 204.73 345 204.773 345C204.816 345 204.86 345 204.903 345C204.946 345 204.99 345 205.033 345C205.076 345 205.119 345 205.162 345C205.205 345 205.249 345 205.292 345C205.335 345 205.378 345 205.421 345C205.464 345 205.507 345 205.55 345C205.592 345 205.635 345 205.678 345C205.721 345 205.764 345 205.807 345C205.849 345 205.892 345 205.935 345C205.978 345 206.02 345 206.063 345C206.106 345 206.148 345 206.191 345C206.233 345 206.276 345 206.318 345C206.361 345 206.403 345 206.446 345C206.488 345 206.53 345 206.573 345C206.615 345 206.657 345 206.699 345C206.742 345 206.784 345 206.826 345C206.868 345 206.91 345 206.952 345C206.995 345 207.037 345 207.079 345C207.121 345 207.163 345 207.205 345C207.246 345 207.288 345 207.33 345C207.372 345 207.414 345 207.456 345C207.497 345 207.539 345 207.581 345C207.623 345 207.664 345 207.706 345C207.747 345 207.789 345 207.831 345C207.872 345 207.914 345 207.955 345C207.997 345 208.038 345 208.079 345C208.121 345 208.162 345 208.203 345C208.245 345 208.286 345 208.327 345C208.368 345 208.409 345 208.451 345C208.492 345 208.533 345 208.574 345C208.615 345 208.656 345 208.697 345C208.738 345 208.779 345 208.82 345C208.86 345 208.901 345 208.942 345C208.983 345 209.024 345 209.064 345C209.105 345 209.146 345 209.186 345C209.227 345 209.268 345 209.308 345C209.349 345 209.389 345 209.43 345C209.47 345 209.51 345 209.551 345C209.591 345 209.631 345 209.672 345C209.712 345 209.752 345 209.792 345C209.833 345 209.873 345 209.913 345C209.953 345 209.993 345 210.033 345C210.073 345 210.113 345 210.153 345C210.193 345 210.233 345 210.273 345C210.312 345 210.352 345 210.392 345C210.432 345 210.471 345 210.511 345C210.551 345 210.59 345 210.63 345C210.67 345 210.709 345 210.749 345C210.788 345 210.827 345 210.867 345C210.906 345 210.946 345 210.985 345C211.024 345 211.063 345 211.103 345C211.142 345 211.181 345 211.22 345C211.259 345 211.298 345 211.337 345C211.376 345 211.415 345 211.454 345C211.493 345 211.532 345 211.571 345C211.61 345 211.648 345 211.687 345C211.726 345 211.765 345 211.803 345C211.842 345 211.881 345 211.919 345C211.958 345 211.996 345 212.035 345C212.073 345 212.112 345 212.15 345C212.188 345 212.227 345 212.265 345C212.303 345 212.341 345 212.38 345C212.418 345 212.456 345 212.494 345C212.532 345 212.57 345 212.608 345C212.646 345 212.684 345 212.722 345C212.76 345 212.797 345 212.835 345C212.873 345 212.911 345 212.948 345C212.986 345 213.024 345 213.061 345C213.099 345 213.137 345 213.174 345C213.212 345 213.249 345 213.286 345C213.324 345 213.361 345 213.398 345C213.436 345 213.473 345 213.51 345C213.547 345 213.584 345 213.622 345C213.659 345 213.696 345 213.733 345C213.77 345 213.807 345 213.843 345C213.88 345 213.917 345 213.954 345C213.991 345 214.027 345 214.064 345C214.101 345 214.138 345 214.174 345C214.211 345 214.247 345 214.284 345C214.32 345 214.357 345 214.393 345V341C214.357 341 214.32 341 214.284 341C214.247 341 214.211 341 214.174 341C214.138 341 214.101 341 214.064 341C214.027 341 213.991 341 213.954 341C213.917 341 213.88 341 213.843 341C213.807 341 213.77 341 213.733 341C213.696 341 213.659 341 213.622 341C213.584 341 213.547 341 213.51 341C213.473 341 213.436 341 213.398 341C213.361 341 213.324 341 213.286 341C213.249 341 213.212 341 213.174 341C213.137 341 213.099 341 213.061 341C213.024 341 212.986 341 212.948 341C212.911 341 212.873 341 212.835 341C212.797 341 212.76 341 212.722 341C212.684 341 212.646 341 212.608 341C212.57 341 212.532 341 212.494 341C212.456 341 212.418 341 212.38 341C212.341 341 212.303 341 212.265 341C212.227 341 212.188 341 212.15 341C212.112 341 212.073 341 212.035 341C211.996 341 211.958 341 211.919 341C211.881 341 211.842 341 211.803 341C211.765 341 211.726 341 211.687 341C211.648 341 211.61 341 211.571 341C211.532 341 211.493 341 211.454 341C211.415 341 211.376 341 211.337 341C211.298 341 211.259 341 211.22 341C211.181 341 211.142 341 211.103 341C211.063 341 211.024 341 210.985 341C210.946 341 210.906 341 210.867 341C210.827 341 210.788 341 210.749 341C210.709 341 210.67 341 210.63 341C210.59 341 210.551 341 210.511 341C210.471 341 210.432 341 210.392 341C210.352 341 210.312 341 210.273 341C210.233 341 210.193 341 210.153 341C210.113 341 210.073 341 210.033 341C209.993 341 209.953 341 209.913 341C209.873 341 209.833 341 209.792 341C209.752 341 209.712 341 209.672 341C209.631 341 209.591 341 209.551 341C209.51 341 209.47 341 209.43 341C209.389 341 209.349 341 209.308 341C209.268 341 209.227 341 209.186 341C209.146 341 209.105 341 209.064 341C209.024 341 208.983 341 208.942 341C208.901 341 208.86 341 208.82 341C208.779 341 208.738 341 208.697 341C208.656 341 208.615 341 208.574 341C208.533 341 208.492 341 208.451 341C208.409 341 208.368 341 208.327 341C208.286 341 208.245 341 208.203 341C208.162 341 208.121 341 208.079 341C208.038 341 207.997 341 207.955 341C207.914 341 207.872 341 207.831 341C207.789 341 207.747 341 207.706 341C207.664 341 207.623 341 207.581 341C207.539 341 207.497 341 207.456 341C207.414 341 207.372 341 207.33 341C207.288 341 207.246 341 207.205 341C207.163 341 207.121 341 207.079 341C207.037 341 206.995 341 206.952 341C206.91 341 206.868 341 206.826 341C206.784 341 206.742 341 206.699 341C206.657 341 206.615 341 206.573 341C206.53 341 206.488 341 206.446 341C206.403 341 206.361 341 206.318 341C206.276 341 206.233 341 206.191 341C206.148 341 206.106 341 206.063 341C206.02 341 205.978 341 205.935 341C205.892 341 205.849 341 205.807 341C205.764 341 205.721 341 205.678 341C205.635 341 205.592 341 205.55 341C205.507 341 205.464 341 205.421 341C205.378 341 205.335 341 205.292 341C205.249 341 205.205 341 205.162 341C205.119 341 205.076 341 205.033 341C204.99 341 204.946 341 204.903 341C204.86 341 204.816 341 204.773 341C204.73 341 204.686 341 204.643 341C204.599 341 204.556 341 204.512 341C204.469 341 204.425 341 204.382 341C204.338 341 204.295 341 204.251 341C204.207 341 204.164 341 204.12 341C204.076 341 204.033 341 203.989 341C203.945 341 203.901 341 203.857 341C203.813 341 203.77 341 203.726 341C203.682 341 203.638 341 203.594 341C203.55 341 203.506 341 203.462 341C203.418 341 203.374 341 203.33 341C203.285 341 203.241 341 203.197 341C203.153 341 203.109 341 203.064 341C203.02 341 202.976 341 202.932 341C202.887 341 202.843 341 202.799 341C202.754 341 202.71 341 202.665 341C202.621 341 202.576 341 202.532 341C202.487 341 202.443 341 202.398 341C202.354 341 202.309 341 202.264 341C202.22 341 202.175 341 202.13 341C202.086 341 202.041 341 201.996 341C201.952 341 201.907 341 201.862 341C201.817 341 201.772 341 201.727 341C201.682 341 201.638 341 201.593 341C201.548 341 201.503 341 201.458 341C201.413 341 201.368 341 201.323 341C201.277 341 201.232 341 201.187 341C201.142 341 201.097 341 201.052 341C201.007 341 200.961 341 200.916 341C200.871 341 200.826 341 200.78 341C200.735 341 200.69 341 200.644 341C200.599 341 200.553 341 200.508 341C200.463 341 200.417 341 200.372 341C200.326 341 200.281 341 200.235 341C200.19 341 200.144 341 200.098 341C200.053 341 200.007 341 199.962 341C199.916 341 199.87 341 199.825 341C199.779 341 199.733 341 199.687 341C199.642 341 199.596 341 199.55 341C199.504 341 199.458 341 199.412 341C199.366 341 199.321 341 199.275 341C199.229 341 199.183 341 199.137 341C199.091 341 199.045 341 198.999 341C198.953 341 198.907 341 198.86 341C198.814 341 198.768 341 198.722 341C198.676 341 198.63 341 198.584 341C198.537 341 198.491 341 198.445 341C198.399 341 198.352 341 198.306 341C198.26 341 198.213 341 198.167 341C198.121 341 198.074 341 198.028 341C197.982 341 197.935 341 197.889 341C197.842 341 197.796 341 197.749 341C197.703 341 197.656 341 197.61 341C197.563 341 197.516 341 197.47 341C197.423 341 197.377 341 197.33 341C197.283 341 197.237 341 197.19 341C197.143 341 197.096 341 197.05 341C197.003 341 196.956 341 196.909 341C196.863 341 196.816 341 196.769 341C196.722 341 196.675 341 196.628 341C196.581 341 196.534 341 196.488 341C196.441 341 196.394 341 196.347 341C196.3 341 196.253 341 196.206 341C196.159 341 196.111 341 196.064 341C196.017 341 195.97 341 195.923 341C195.876 341 195.829 341 195.782 341C195.734 341 195.687 341 195.64 341C195.593 341 195.546 341 195.498 341C195.451 341 195.404 341 195.357 341C195.309 341 195.262 341 195.215 341C195.167 341 195.12 341 195.072 341C195.025 341 194.978 341 194.93 341C194.883 341 194.835 341 194.788 341C194.74 341 194.693 341 194.645 341C194.598 341 194.55 341 194.503 341C194.455 341 194.408 341 194.36 341C194.312 341 194.265 341 194.217 341C194.17 341 194.122 341 194.074 341C194.027 341 193.979 341 193.931 341C193.883 341 193.836 341 193.788 341C193.74 341 193.692 341 193.645 341C193.597 341 193.549 341 193.501 341C193.453 341 193.406 341 193.358 341C193.31 341 193.262 341 193.214 341C193.166 341 193.118 341 193.07 341C193.022 341 192.974 341 192.926 341C192.878 341 192.83 341 192.782 341C192.734 341 192.686 341 192.638 341C192.59 341 192.542 341 192.494 341C192.446 341 192.398 341 192.35 341C192.302 341 192.253 341 192.205 341C192.157 341 192.109 341 192.061 341C192.013 341 191.964 341 191.916 341C191.868 341 191.82 341 191.771 341C191.723 341 191.675 341 191.627 341C191.578 341 191.53 341 191.482 341C191.433 341 191.385 341 191.337 341C191.288 341 191.24 341 191.192 341C191.143 341 191.095 341 191.046 341C190.998 341 190.95 341 190.901 341C190.853 341 190.804 341 190.756 341C190.707 341 190.659 341 190.61 341C190.562 341 190.513 341 190.465 341C190.416 341 190.368 341 190.319 341C190.27 341 190.222 341 190.173 341C190.125 341 190.076 341 190.027 341C189.979 341 189.93 341 189.882 341C189.833 341 189.784 341 189.735 341C189.687 341 189.638 341 189.589 341C189.541 341 189.492 341 189.443 341C189.395 341 189.346 341 189.297 341C189.248 341 189.199 341 189.151 341C189.102 341 189.053 341 189.004 341C188.955 341 188.907 341 188.858 341C188.809 341 188.76 341 188.711 341C188.662 341 188.614 341 188.565 341C188.516 341 188.467 341 188.418 341C188.369 341 188.32 341 188.271 341C188.222 341 188.173 341 188.124 341C188.075 341 188.026 341 187.977 341C187.928 341 187.879 341 187.83 341C187.781 341 187.732 341 187.683 341C187.634 341 187.585 341 187.536 341C187.487 341 187.438 341 187.389 341C187.34 341 187.291 341 187.242 341C187.193 341 187.144 341 187.095 341C187.045 341 186.996 341 186.947 341C186.898 341 186.849 341 186.8 341C186.751 341 186.701 341 186.652 341C186.603 341 186.554 341 186.505 341C186.456 341 186.406 341 186.357 341C186.308 341 186.259 341 186.21 341C186.16 341 186.111 341 186.062 341C186.013 341 185.963 341 185.914 341C185.865 341 185.816 341 185.766 341C185.717 341 185.668 341 185.618 341C185.569 341 185.52 341 185.471 341C185.421 341 185.372 341 185.323 341C185.273 341 185.224 341 185.175 341C185.125 341 185.076 341 185.027 341C184.977 341 184.928 341 184.878 341C184.829 341 184.78 341 184.73 341C184.681 341 184.632 341 184.582 341C184.533 341 184.483 341 184.434 341C184.385 341 184.335 341 184.286 341C184.236 341 184.187 341 184.137 341C184.088 341 184.039 341 183.989 341C183.94 341 183.89 341 183.841 341C183.791 341 183.742 341 183.692 341C183.643 341 183.593 341 183.544 341C183.495 341 183.445 341 183.396 341C183.346 341 183.297 341 183.247 341C183.198 341 183.148 341 183.099 341C183.049 341 183 341 182.95 341C182.9 341 182.851 341 182.801 341C182.752 341 182.702 341 182.653 341C182.603 341 182.554 341 182.504 341C182.455 341 182.405 341 182.356 341C182.306 341 182.257 341 182.207 341C182.157 341 182.108 341 182.058 341C182.009 341 181.959 341 181.91 341C181.86 341 181.81 341 181.761 341C181.711 341 181.662 341 181.612 341C181.563 341 181.513 341 181.463 341C181.414 341 181.364 341 181.315 341C181.265 341 181.215 341 181.166 341C181.116 341 181.067 341 181.017 341C180.967 341 180.918 341 180.868 341C180.819 341 180.769 341 180.719 341C180.67 341 180.62 341 180.571 341C180.521 341 180.471 341 180.422 341C180.372 341 180.323 341 180.273 341C180.223 341 180.174 341 180.124 341C180.074 341 180.025 341 179.975 341C179.926 341 179.876 341 179.826 341C179.777 341 179.727 341 179.678 341C179.628 341 179.578 341 179.529 341C179.479 341 179.43 341 179.38 341C179.33 341 179.281 341 179.231 341C179.181 341 179.132 341 179.082 341C179.033 341 178.983 341 178.933 341C178.884 341 178.834 341 178.785 341C178.735 341 178.685 341 178.636 341C178.586 341 178.537 341 178.487 341C178.437 341 178.388 341 178.338 341C178.289 341 178.239 341 178.189 341C178.14 341 178.09 341 178.041 341C177.991 341 177.941 341 177.892 341C177.842 341 177.793 341 177.743 341C177.693 341 177.644 341 177.594 341C177.545 341 177.495 341 177.446 341C177.396 341 177.346 341 177.297 341C177.247 341 177.198 341 177.148 341C177.099 341 177.049 341 177 341C176.95 341 176.9 341 176.851 341C176.801 341 176.752 341 176.702 341C176.653 341 176.603 341 176.554 341C176.504 341 176.455 341 176.405 341C176.356 341 176.306 341 176.257 341C176.207 341 176.158 341 176.108 341C176.059 341 176.009 341 175.96 341C175.91 341 175.861 341 175.811 341C175.762 341 175.712 341 175.663 341C175.613 341 175.564 341 175.514 341C175.465 341 175.415 341 175.366 341C175.317 341 175.267 341 175.218 341C175.168 341 175.119 341 175.069 341C175.02 341 174.971 341 174.921 341C174.872 341 174.822 341 174.773 341C174.724 341 174.674 341 174.625 341C174.575 341 174.526 341 174.477 341C174.427 341 174.378 341 174.329 341C174.279 341 174.23 341 174.181 341C174.131 341 174.082 341 174.033 341C173.983 341 173.934 341 173.885 341C173.835 341 173.786 341 173.737 341C173.687 341 173.638 341 173.589 341C173.54 341 173.49 341 173.441 341C173.392 341 173.343 341 173.293 341C173.244 341 173.195 341 173.146 341C173.096 341 173.047 341 172.998 341C172.949 341 172.9 341 172.85 341C172.801 341 172.752 341 172.703 341C172.654 341 172.605 341 172.555 341C172.506 341 172.457 341 172.408 341C172.359 341 172.31 341 172.261 341C172.212 341 172.162 341 172.113 341C172.064 341 172.015 341 171.966 341C171.917 341 171.868 341 171.819 341C171.77 341 171.721 341 171.672 341C171.623 341 171.574 341 171.525 341C171.476 341 171.427 341 171.378 341C171.329 341 171.28 341 171.231 341C171.182 341 171.133 341 171.084 341C171.035 341 170.986 341 170.937 341C170.888 341 170.839 341 170.791 341C170.742 341 170.693 341 170.644 341C170.595 341 170.546 341 170.497 341C170.449 341 170.4 341 170.351 341C170.302 341 170.253 341 170.204 341C170.156 341 170.107 341 170.058 341C170.009 341 169.961 341 169.912 341C169.863 341 169.814 341 169.766 341C169.717 341 169.668 341 169.62 341C169.571 341 169.522 341 169.474 341C169.425 341 169.376 341 169.328 341C169.279 341 169.231 341 169.182 341C169.133 341 169.085 341 169.036 341C168.988 341 168.939 341 168.891 341C168.842 341 168.793 341 168.745 341C168.696 341 168.648 341 168.599 341C168.551 341 168.503 341 168.454 341C168.406 341 168.357 341 168.309 341C168.26 341 168.212 341 168.164 341C168.115 341 168.067 341 168.018 341C167.97 341 167.922 341 167.873 341C167.825 341 167.777 341 167.729 341C167.68 341 167.632 341 167.584 341C167.535 341 167.487 341 167.439 341C167.391 341 167.343 341 167.294 341C167.246 341 167.198 341 167.15 341C167.102 341 167.054 341 167.005 341C166.957 341 166.909 341 166.861 341C166.813 341 166.765 341 166.717 341C166.669 341 166.621 341 166.573 341C166.525 341 166.477 341 166.429 341C166.381 341 166.333 341 166.285 341C166.237 341 166.189 341 166.141 341C166.093 341 166.045 341 165.998 341C165.95 341 165.902 341 165.854 341C165.806 341 165.758 341 165.711 341C165.663 341 165.615 341 165.567 341C165.519 341 165.472 341 165.424 341C165.376 341 165.329 341 165.281 341C165.233 341 165.186 341 165.138 341C165.09 341 165.043 341 164.995 341C164.948 341 164.9 341 164.852 341C164.805 341 164.757 341 164.71 341C164.662 341 164.615 341 164.567 341C164.52 341 164.472 341 164.425 341C164.378 341 164.33 341 164.283 341C164.235 341 164.188 341 164.141 341C164.093 341 164.046 341 163.999 341C163.951 341 163.904 341 163.857 341C163.81 341 163.762 341 163.715 341C163.668 341 163.621 341 163.574 341C163.526 341 163.479 341 163.432 341C163.385 341 163.338 341 163.291 341C163.244 341 163.197 341 163.15 341C163.103 341 163.056 341 163.009 341C162.962 341 162.915 341 162.868 341C162.821 341 162.774 341 162.727 341C162.68 341 162.633 341 162.586 341C162.539 341 162.493 341 162.446 341C162.399 341 162.352 341 162.305 341C162.259 341 162.212 341 162.165 341C162.119 341 162.072 341 162.025 341C161.979 341 161.932 341 161.885 341C161.839 341 161.792 341 161.746 341C161.699 341 161.652 341 161.606 341C161.559 341 161.513 341 161.467 341C161.42 341 161.374 341 161.327 341C161.281 341 161.234 341 161.188 341C161.142 341 161.095 341 161.049 341C161.003 341 160.956 341 160.91 341C160.864 341 160.818 341 160.772 341C160.725 341 160.679 341 160.633 341C160.587 341 160.541 341 160.495 341C160.449 341 160.403 341 160.356 341C160.31 341 160.264 341 160.218 341C160.172 341 160.126 341 160.081 341C160.035 341 159.989 341 159.943 341C159.897 341 159.851 341 159.805 341C159.759 341 159.714 341 159.668 341C159.622 341 159.576 341 159.531 341C159.485 341 159.439 341 159.394 341C159.348 341 159.302 341 159.257 341C159.211 341 159.166 341 159.12 341C159.074 341 159.029 341 158.983 341C158.938 341 158.893 341 158.847 341C158.802 341 158.756 341 158.711 341C158.666 341 158.62 341 158.575 341C158.53 341 158.484 341 158.439 341C158.394 341 158.349 341 158.303 341C158.258 341 158.213 341 158.168 341C158.123 341 158.078 341 158.033 341C157.988 341 157.943 341 157.897 341C157.852 341 157.808 341 157.763 341C157.718 341 157.673 341 157.628 341C157.583 341 157.538 341 157.493 341C157.448 341 157.404 341 157.359 341C157.314 341 157.269 341 157.225 341C157.18 341 157.135 341 157.091 341C157.046 341 157.001 341 156.957 341C156.912 341 156.868 341 156.823 341C156.779 341 156.734 341 156.69 341C156.645 341 156.601 341 156.557 341C156.512 341 156.468 341 156.424 341C156.379 341 156.335 341 156.291 341C156.246 341 156.202 341 156.158 341C156.114 341 156.07 341 156.026 341C155.981 341 155.937 341 155.893 341C155.849 341 155.805 341 155.761 341C155.717 341 155.673 341 155.629 341C155.586 341 155.542 341 155.498 341C155.454 341 155.41 341 155.366 341C155.323 341 155.279 341 155.235 341C155.191 341 155.148 341 155.104 341C155.061 341 155.017 341 154.973 341C154.93 341 154.886 341 154.843 341C154.799 341 154.756 341 154.712 341C154.669 341 154.626 341 154.582 341C154.539 341 154.495 341 154.452 341C154.409 341 154.366 341 154.322 341C154.279 341 154.236 341 154.193 341C154.15 341 154.107 341 154.064 341C154.02 341 153.977 341 153.934 341C153.891 341 153.849 341 153.806 341C153.763 341 153.72 341 153.677 341C153.634 341 153.591 341 153.548 341C153.506 341 153.463 341 153.42 341C153.378 341 153.335 341 153.292 341C153.25 341 153.207 341 153.165 341C153.122 341 153.079 341 153.037 341C152.994 341 152.952 341 152.91 341C152.867 341 152.825 341 152.783 341C152.74 341 152.698 341 152.656 341C152.613 341 152.571 341 152.529 341C152.487 341 152.445 341 152.403 341C152.361 341 152.319 341 152.277 341C152.235 341 152.193 341 152.151 341C152.109 341 152.067 341 152.025 341C151.983 341 151.941 341 151.899 341C151.858 341 151.816 341 151.774 341C151.733 341 151.691 341 151.649 341C151.608 341 151.566 341 151.525 341C151.483 341 151.442 341 151.4 341C151.359 341 151.317 341 151.276 341C151.234 341 151.193 341 151.152 341C151.111 341 151.069 341 151.028 341C150.987 341 150.946 341 150.905 341C150.863 341 150.822 341 150.781 341C150.74 341 150.699 341 150.658 341C150.617 341 150.576 341 150.536 341C150.495 341 150.454 341 150.413 341C150.372 341 150.332 341 150.291 341C150.25 341 150.209 341 150.169 341C150.128 341 150.088 341 150.047 341C150.007 341 149.966 341 149.926 341C149.885 341 149.845 341 149.804 341C149.764 341 149.724 341 149.683 341C149.643 341 149.603 341 149.563 341C149.523 341 149.482 341 149.442 341C149.402 341 149.362 341 149.322 341C149.282 341 149.242 341 149.202 341C149.162 341 149.122 341 149.083 341C149.043 341 149.003 341 148.963 341C148.923 341 148.884 341 148.844 341C148.804 341 148.765 341 148.725 341C148.686 341 148.646 341 148.607 341C148.567 341 148.528 341 148.488 341C148.449 341 148.41 341 148.37 341C148.331 341 148.292 341 148.253 341C148.213 341 148.174 341 148.135 341C148.096 341 148.057 341 148.018 341C147.979 341 147.94 341 147.901 341C147.862 341 147.823 341 147.784 341C147.745 341 147.707 341 147.668 341C147.629 341 147.59 341 147.552 341C147.513 341 147.475 341 147.436 341C147.397 341 147.359 341 147.32 341C147.282 341 147.244 341 147.205 341C147.167 341 147.129 341 147.09 341C147.052 341 147.014 341 146.976 341C146.937 341 146.899 341 146.861 341C146.823 341 146.785 341 146.747 341C146.709 341 146.671 341 146.633 341C146.596 341 146.558 341 146.52 341C146.482 341 146.444 341 146.407 341C146.369 341 146.331 341 146.294 341C146.256 341 146.219 341 146.181 341C146.144 341 146.106 341 146.069 341C146.031 341 145.994 341 145.957 341C145.92 341 145.882 341 145.845 341C145.808 341 145.771 341 145.734 341C145.697 341 145.66 341 145.623 341C145.586 341 145.549 341 145.512 341C145.475 341 145.438 341 145.401 341C145.364 341 145.328 341 145.291 341C145.254 341 145.218 341 145.181 341C145.144 341 145.108 341 145.071 341C145.035 341 144.999 341 144.962 341V345ZM172.393 151.335C172.393 156.158 168.729 160.673 163.05 164.117C157.444 167.518 150.441 169.5 144.962 169.5V173.5C151.243 173.5 158.955 171.279 165.125 167.537C171.222 163.839 176.393 158.272 176.393 151.335H172.393Z" fill="#DE5EE6" mask="url(#path-1-inside-1_107_380)"/>
</svg>
