<svg width="229" height="49" viewBox="0 0 229 49" fill="none" xmlns="http://www.w3.org/2000/svg">
<path d="M74.588 26.22V23.88H78.656C79.4 23.88 80.048 23.76 80.6 23.52C81.152 23.28 81.572 22.932 81.86 22.476C82.172 22.02 82.328 21.48 82.328 20.856C82.328 19.896 81.992 19.164 81.32 18.66C80.672 18.156 79.784 17.904 78.656 17.904H75.884V34.896H79.196C80.06 34.896 80.84 34.776 81.536 34.536C82.232 34.272 82.772 33.864 83.156 33.312C83.564 32.76 83.768 32.052 83.768 31.188C83.768 30.564 83.648 30.036 83.408 29.604C83.192 29.148 82.868 28.776 82.436 28.488C82.028 28.176 81.548 27.96 80.996 27.84C80.444 27.696 79.844 27.624 79.196 27.624H74.588V24.816H79.664C80.888 24.816 82.052 24.948 83.156 25.212C84.284 25.476 85.292 25.896 86.18 26.472C87.068 27.024 87.764 27.744 88.268 28.632C88.796 29.52 89.06 30.588 89.06 31.836C89.06 33.492 88.664 34.848 87.872 35.904C87.104 36.96 86.012 37.74 84.596 38.244C83.18 38.748 81.536 39 79.664 39H70.736V13.8H79.124C80.804 13.8 82.28 14.04 83.552 14.52C84.824 14.976 85.82 15.672 86.54 16.608C87.26 17.544 87.62 18.732 87.62 20.172C87.62 21.444 87.26 22.536 86.54 23.448C85.82 24.36 84.824 25.056 83.552 25.536C82.28 25.992 80.804 26.22 79.124 26.22H74.588ZM92.7989 16.032C92.7989 15.264 93.0749 14.64 93.6269 14.16C94.1789 13.656 94.8389 13.404 95.6069 13.404C96.3749 13.404 97.0229 13.656 97.5509 14.16C98.1029 14.64 98.3789 15.264 98.3789 16.032C98.3789 16.776 98.1029 17.4 97.5509 17.904C97.0229 18.408 96.3749 18.66 95.6069 18.66C94.8389 18.66 94.1789 18.408 93.6269 17.904C93.0749 17.4 92.7989 16.776 92.7989 16.032ZM93.3029 22.44H97.8389V39H93.3029V22.44ZM102.68 10.92H107.18V39H102.68V10.92ZM113.264 22.44H118.844L111.716 29.28L119.564 39H114.02L106.136 29.28L113.264 22.44ZM121.803 16.032C121.803 15.264 122.079 14.64 122.631 14.16C123.183 13.656 123.843 13.404 124.611 13.404C125.379 13.404 126.027 13.656 126.555 14.16C127.107 14.64 127.383 15.264 127.383 16.032C127.383 16.776 127.107 17.4 126.555 17.904C126.027 18.408 125.379 18.66 124.611 18.66C123.843 18.66 123.183 18.408 122.631 17.904C122.079 17.4 121.803 16.776 121.803 16.032ZM122.307 22.44H126.843V39H122.307V22.44ZM142.484 28.92C142.484 27.816 142.268 26.976 141.836 26.4C141.404 25.824 140.708 25.536 139.748 25.536C139.1 25.536 138.524 25.68 138.02 25.968C137.516 26.232 137.132 26.616 136.868 27.12C136.604 27.624 136.472 28.224 136.472 28.92V39H131.792V22.44H136.472V24.96C136.976 24.024 137.636 23.316 138.452 22.836C139.292 22.332 140.3 22.08 141.476 22.08C143.444 22.08 144.908 22.644 145.868 23.772C146.828 24.876 147.308 26.424 147.308 28.416V39H142.484V28.92ZM151.686 16.032C151.686 15.264 151.962 14.64 152.514 14.16C153.066 13.656 153.726 13.404 154.494 13.404C155.262 13.404 155.91 13.656 156.438 14.16C156.99 14.64 157.266 15.264 157.266 16.032C157.266 16.776 156.99 17.4 156.438 17.904C155.91 18.408 155.262 18.66 154.494 18.66C153.726 18.66 153.066 18.408 152.514 17.904C151.962 17.4 151.686 16.776 151.686 16.032ZM152.19 22.44H156.726V39H152.19V22.44Z" fill="white"/>
<path d="M166.103 26.4C166.103 28.008 166.439 29.436 167.111 30.684C167.783 31.932 168.707 32.916 169.883 33.636C171.059 34.356 172.427 34.716 173.987 34.716C175.547 34.716 176.915 34.356 178.091 33.636C179.267 32.916 180.179 31.932 180.827 30.684C181.499 29.436 181.835 28.008 181.835 26.4C181.835 24.792 181.511 23.364 180.863 22.116C180.215 20.868 179.303 19.884 178.127 19.164C176.951 18.444 175.571 18.084 173.987 18.084C172.427 18.084 171.059 18.444 169.883 19.164C168.707 19.884 167.783 20.868 167.111 22.116C166.439 23.364 166.103 24.792 166.103 26.4ZM160.667 26.4C160.667 24.48 161.003 22.728 161.675 21.144C162.347 19.536 163.283 18.144 164.483 16.968C165.683 15.792 167.087 14.892 168.695 14.268C170.327 13.62 172.091 13.296 173.987 13.296C175.907 13.296 177.671 13.62 179.279 14.268C180.887 14.892 182.291 15.792 183.491 16.968C184.715 18.144 185.651 19.536 186.299 21.144C186.971 22.728 187.307 24.48 187.307 26.4C187.307 28.296 186.971 30.06 186.299 31.692C185.651 33.3 184.727 34.704 183.527 35.904C182.351 37.104 180.947 38.04 179.315 38.712C177.707 39.36 175.931 39.684 173.987 39.684C172.043 39.684 170.255 39.36 168.623 38.712C167.015 38.04 165.611 37.104 164.411 35.904C163.211 34.704 162.287 33.3 161.639 31.692C160.991 30.06 160.667 28.296 160.667 26.4ZM194.599 18.3V13.8H205.867V18.3H194.599ZM194.599 28.236V23.952H205.507V28.236H194.599ZM191.287 13.8H196.255V39H191.287V13.8ZM213.9 18.3V13.8H225.168V18.3H213.9ZM213.9 28.236V23.952H224.808V28.236H213.9ZM210.588 13.8H215.556V39H210.588V13.8Z" fill="#F66BFF"/>
<path d="M7.74288 4V16.4756M7.74288 16.4756C3.88484 23.4559 -3.49988 39.1989 9.07836 45.4367C17.5001 48.5 22.077 46.7734 25.9944 43.2089M7.74288 16.4756L25.9944 32.9611M25.9944 43.2089H34.4524M25.9944 43.2089V32.9611M34.4524 43.2089C40.0001 47.5 54.4025 48.8946 58.0001 40.5C61.0001 33.5 55.3749 20.9311 53.5942 16.4756M34.4524 43.2089V32.9611M53.5942 16.4756V4M53.5942 16.4756L34.4524 32.9611M34.4524 32.9611H25.9944" stroke="#F66BFF" strokeWidth="3"/>
</svg>
