<svg width="229" height="49" viewBox="0 0 229 49" fill="none" xmlns="http://www.w3.org/2000/svg">
<path d="M74.5343 26.22V23.88H78.6023C79.3463 23.88 79.9943 23.76 80.5463 23.52C81.0983 23.28 81.5183 22.932 81.8063 22.476C82.1183 22.02 82.2743 21.48 82.2743 20.856C82.2743 19.896 81.9383 19.164 81.2663 18.66C80.6183 18.156 79.7303 17.904 78.6023 17.904H75.8303V34.896H79.1423C80.0063 34.896 80.7863 34.776 81.4823 34.536C82.1783 34.272 82.7183 33.864 83.1023 33.312C83.5103 32.76 83.7143 32.052 83.7143 31.188C83.7143 30.564 83.5943 30.036 83.3543 29.604C83.1383 29.148 82.8143 28.776 82.3823 28.488C81.9743 28.176 81.4943 27.96 80.9423 27.84C80.3903 27.696 79.7903 27.624 79.1423 27.624H74.5343V24.816H79.6103C80.8343 24.816 81.9983 24.948 83.1023 25.212C84.2303 25.476 85.2383 25.896 86.1263 26.472C87.0143 27.024 87.7103 27.744 88.2143 28.632C88.7423 29.52 89.0063 30.588 89.0063 31.836C89.0063 33.492 88.6103 34.848 87.8183 35.904C87.0503 36.96 85.9583 37.74 84.5423 38.244C83.1263 38.748 81.4823 39 79.6103 39H70.6823V13.8H79.0703C80.7503 13.8 82.2263 14.04 83.4983 14.52C84.7703 14.976 85.7663 15.672 86.4863 16.608C87.2063 17.544 87.5663 18.732 87.5663 20.172C87.5663 21.444 87.2063 22.536 86.4863 23.448C85.7663 24.36 84.7703 25.056 83.4983 25.536C82.2263 25.992 80.7503 26.22 79.0703 26.22H74.5343ZM92.7452 16.032C92.7452 15.264 93.0212 14.64 93.5732 14.16C94.1252 13.656 94.7852 13.404 95.5532 13.404C96.3212 13.404 96.9692 13.656 97.4972 14.16C98.0492 14.64 98.3252 15.264 98.3252 16.032C98.3252 16.776 98.0492 17.4 97.4972 17.904C96.9692 18.408 96.3212 18.66 95.5532 18.66C94.7852 18.66 94.1252 18.408 93.5732 17.904C93.0212 17.4 92.7452 16.776 92.7452 16.032ZM93.2492 22.44H97.7852V39H93.2492V22.44ZM102.627 10.92H107.127V39H102.627V10.92ZM113.211 22.44H118.791L111.663 29.28L119.511 39H113.967L106.083 29.28L113.211 22.44ZM121.749 16.032C121.749 15.264 122.025 14.64 122.577 14.16C123.129 13.656 123.789 13.404 124.557 13.404C125.325 13.404 125.973 13.656 126.501 14.16C127.053 14.64 127.329 15.264 127.329 16.032C127.329 16.776 127.053 17.4 126.501 17.904C125.973 18.408 125.325 18.66 124.557 18.66C123.789 18.66 123.129 18.408 122.577 17.904C122.025 17.4 121.749 16.776 121.749 16.032ZM122.253 22.44H126.789V39H122.253V22.44ZM142.431 28.92C142.431 27.816 142.215 26.976 141.783 26.4C141.351 25.824 140.655 25.536 139.695 25.536C139.047 25.536 138.471 25.68 137.967 25.968C137.463 26.232 137.079 26.616 136.815 27.12C136.551 27.624 136.419 28.224 136.419 28.92V39H131.739V22.44H136.419V24.96C136.923 24.024 137.583 23.316 138.399 22.836C139.239 22.332 140.247 22.08 141.423 22.08C143.391 22.08 144.855 22.644 145.815 23.772C146.775 24.876 147.255 26.424 147.255 28.416V39H142.431V28.92ZM151.632 16.032C151.632 15.264 151.908 14.64 152.46 14.16C153.012 13.656 153.672 13.404 154.44 13.404C155.208 13.404 155.856 13.656 156.384 14.16C156.936 14.64 157.212 15.264 157.212 16.032C157.212 16.776 156.936 17.4 156.384 17.904C155.856 18.408 155.208 18.66 154.44 18.66C153.672 18.66 153.012 18.408 152.46 17.904C151.908 17.4 151.632 16.776 151.632 16.032ZM152.136 22.44H156.672V39H152.136V22.44Z" fill="white"/>
<path d="M166.049 26.4C166.049 28.008 166.385 29.436 167.057 30.684C167.729 31.932 168.653 32.916 169.829 33.636C171.005 34.356 172.373 34.716 173.933 34.716C175.493 34.716 176.861 34.356 178.037 33.636C179.213 32.916 180.125 31.932 180.773 30.684C181.445 29.436 181.781 28.008 181.781 26.4C181.781 24.792 181.457 23.364 180.809 22.116C180.161 20.868 179.249 19.884 178.073 19.164C176.897 18.444 175.517 18.084 173.933 18.084C172.373 18.084 171.005 18.444 169.829 19.164C168.653 19.884 167.729 20.868 167.057 22.116C166.385 23.364 166.049 24.792 166.049 26.4ZM160.613 26.4C160.613 24.48 160.949 22.728 161.621 21.144C162.293 19.536 163.229 18.144 164.429 16.968C165.629 15.792 167.033 14.892 168.641 14.268C170.273 13.62 172.037 13.296 173.933 13.296C175.853 13.296 177.617 13.62 179.225 14.268C180.833 14.892 182.237 15.792 183.437 16.968C184.661 18.144 185.597 19.536 186.245 21.144C186.917 22.728 187.253 24.48 187.253 26.4C187.253 28.296 186.917 30.06 186.245 31.692C185.597 33.3 184.673 34.704 183.473 35.904C182.297 37.104 180.893 38.04 179.261 38.712C177.653 39.36 175.877 39.684 173.933 39.684C171.989 39.684 170.201 39.36 168.569 38.712C166.961 38.04 165.557 37.104 164.357 35.904C163.157 34.704 162.233 33.3 161.585 31.692C160.937 30.06 160.613 28.296 160.613 26.4ZM194.545 18.3V13.8H205.813V18.3H194.545ZM194.545 28.236V23.952H205.453V28.236H194.545ZM191.233 13.8H196.201V39H191.233V13.8ZM213.846 18.3V13.8H225.114V18.3H213.846ZM213.846 28.236V23.952H224.754V28.236H213.846ZM210.534 13.8H215.502V39H210.534V13.8Z" fill="#F66BFF"/>
<path d="M7.68917 4V16.4756M7.68917 16.4756C3.83113 23.4559 -3.55359 39.1989 9.02465 45.4367C17.4464 48.5 22.0233 46.7734 25.9407 43.2089M7.68917 16.4756L25.9407 32.9611M25.9407 43.2089H34.3987M25.9407 43.2089V32.9611M34.3987 43.2089C39.9464 47.5 54.3487 48.8946 57.9464 40.5C60.9464 33.5 55.3212 20.9311 53.5405 16.4756M34.3987 43.2089V32.9611M53.5405 16.4756V4M53.5405 16.4756L34.3987 32.9611M34.3987 32.9611H25.9407" stroke="#F66BFF" strokeWidth="3"/>
</svg>
